<svg width="24" height="24" viewBox="0 0 24 24" fill="none" xmlns="http://www.w3.org/2000/svg">
<path fill-rule="evenodd" clip-rule="evenodd" d="M0 12C0 5.376 5.376 0 12 0C18.624 0 24 5.376 24 12C24 18.624 18.624 24 12 24C5.376 24 0 18.624 0 12ZM2.40002 12.0004C2.40002 17.2924 6.70802 21.6004 12 21.6004C17.292 21.6004 21.6 17.2924 21.6 12.0004C21.6 6.70839 17.292 2.40039 12 2.40039C6.70802 2.40039 2.40002 6.70839 2.40002 12.0004ZM13.2 16.8V19.2H10.8V16.8H13.2ZM7.41602 8.19563C8.07602 6.01163 10.26 4.48763 12.732 4.84763C14.82 5.15963 16.464 6.92363 16.752 9.01163C17.0257 10.9479 15.9549 11.8821 14.9214 12.7839C14.7315 12.9496 14.5428 13.1141 14.364 13.2836C14.22 13.4156 14.088 13.5476 13.968 13.6916C13.962 13.6976 13.956 13.7066 13.95 13.7156C13.944 13.7246 13.938 13.7336 13.932 13.7396C13.812 13.8836 13.692 14.0396 13.596 14.2076C13.584 14.2256 13.575 14.2436 13.566 14.2616C13.557 14.2796 13.548 14.2976 13.536 14.3156C13.332 14.6756 13.2 15.0956 13.2 15.5996H10.8C10.8 14.9996 10.896 14.5076 11.04 14.0996C11.0453 14.0838 11.0482 14.0704 11.0509 14.0582C11.0543 14.0426 11.0573 14.0291 11.064 14.0156C11.07 13.9976 11.079 13.9826 11.088 13.9676C11.097 13.9526 11.106 13.9376 11.112 13.9196C11.196 13.7036 11.304 13.4996 11.412 13.3196C11.418 13.3076 11.424 13.2986 11.43 13.2896C11.436 13.2806 11.442 13.2716 11.448 13.2596C11.448 13.2536 11.451 13.2506 11.454 13.2476C11.457 13.2446 11.46 13.2416 11.46 13.2356C11.8687 12.6201 12.4168 12.1986 12.9294 11.8044C13.666 11.2379 14.3293 10.7278 14.4 9.77963C14.496 8.61563 13.656 7.49963 12.516 7.25963C11.28 6.99563 10.14 7.72763 9.75602 8.79563C9.58802 9.25163 9.19202 9.59963 8.70002 9.59963H8.46002C7.72802 9.59963 7.20002 8.89163 7.41602 8.19563Z" fill="white"/>
</svg>
