<svg width="24" height="22" viewBox="0 0 24 22" fill="none" xmlns="http://www.w3.org/2000/svg">
<path fill-rule="evenodd" clip-rule="evenodd" d="M2.70987 10.6471C2.70987 4.67522 7.64113 -0.161431 13.6603 0.00412729C19.2065 0.15786 23.8421 4.79348 23.9959 10.3397C24.1614 16.3589 19.3248 21.2901 13.3529 21.2901C10.8813 21.2901 8.62265 20.4505 6.82516 19.0315C6.26936 18.6057 6.23388 17.7661 6.73056 17.2694C7.15628 16.8437 7.81851 16.8082 8.29153 17.1748C9.68695 18.2746 11.449 18.925 13.3529 18.925C17.9648 18.925 21.6899 15.1527 21.6308 10.5289C21.5716 6.12977 17.8702 2.42837 13.4711 2.36924C8.83551 2.31011 5.07498 6.03516 5.07498 10.6471H7.19175C7.7239 10.6471 7.98407 11.2857 7.61747 11.6523L4.31814 14.9635C4.08163 15.2 3.71504 15.2 3.47853 14.9635L0.179198 11.6523C-0.19922 11.2857 0.0609423 10.6471 0.593092 10.6471H2.70987ZM12.1703 6.80374C12.1703 6.31889 12.5723 5.91682 13.0572 5.91682C13.542 5.91682 13.9441 6.31889 13.9441 6.79191V10.8126L17.3499 12.8348C17.7638 13.0831 17.9057 13.6271 17.6573 14.0528C17.409 14.4667 16.865 14.6086 16.4393 14.3603L12.7497 12.1725C12.395 11.9597 12.1703 11.5694 12.1703 11.1555V6.80374Z" fill="white"/>
</svg>
