<svg width="24" height="24" viewBox="0 0 24 24" fill="none" xmlns="http://www.w3.org/2000/svg">
<path fill-rule="evenodd" clip-rule="evenodd" d="M12 0C5.376 0 0 5.376 0 12C0 18.624 5.376 24 12 24C18.624 24 24 18.624 24 12C24 5.376 18.624 0 12 0ZM10.8 6V8.4H13.2V6H10.8ZM13.2 16.8C13.2 17.46 12.66 18 12 18C11.34 18 10.8 17.46 10.8 16.8V12C10.8 11.34 11.34 10.8 12 10.8C12.66 10.8 13.2 11.34 13.2 12V16.8ZM2.40002 12.0004C2.40002 17.2924 6.70802 21.6004 12 21.6004C17.292 21.6004 21.6 17.2924 21.6 12.0004C21.6 6.70839 17.292 2.40039 12 2.40039C6.70802 2.40039 2.40002 6.70839 2.40002 12.0004Z" fill="white"/>
</svg>
