<svg width="30" height="30" viewBox="0 0 30 30" fill="none" xmlns="http://www.w3.org/2000/svg">
<path d="M27.0606 20.4578L22.8187 19.9735C21.8 19.8566 20.798 20.2073 20.0799 20.9254L17.007 23.9983C12.2808 21.5935 8.40637 17.7357 6.00153 12.9928L9.09109 9.90326C9.8092 9.18515 10.1599 8.18314 10.043 7.16442L9.55869 2.95595C9.35829 1.26922 7.93877 0 6.23534 0H3.34619C1.45906 0 -0.110767 1.56983 0.00613481 3.45696C0.89125 17.719 12.2975 29.1086 26.5429 29.9937C28.43 30.1106 29.9998 28.5408 29.9998 26.6536V23.7645C30.0165 22.0778 28.7473 20.6582 27.0606 20.4578Z" fill="#01B58A"/>
</svg>
