<svg width="24" height="24" viewBox="0 0 24 24" fill="none" xmlns="http://www.w3.org/2000/svg">
<path fill-rule="evenodd" clip-rule="evenodd" d="M14.1047 12.77C14.5422 12.77 14.8881 12.43 14.8881 12C14.8881 11.58 14.5422 11.23 14.1047 11.23H8V6.45C8 4 10.0247 2 12.5276 2H17.4826C19.9753 2 22 3.99 22 6.44L22 17.55C22 20.01 19.9651 22 17.4724 22H12.5073C10.0247 22 8 20.01 8 17.56L8 12.77H14.1047ZM4.3698 15.4598L1.4498 12.5498C1.2998 12.3998 1.2198 12.2098 1.2198 11.9998C1.2198 11.7998 1.2998 11.5998 1.4498 11.4598L4.3698 8.5498C4.5198 8.3998 4.7198 8.3198 4.9098 8.3198C5.1098 8.3198 5.3098 8.3998 5.4598 8.5498C5.7598 8.8498 5.7598 9.3398 5.4598 9.6398L3.8598 11.2298H7.9998V12.7698H3.8598L5.4598 14.3598C5.7598 14.6598 5.7598 15.1498 5.4598 15.4498C5.1598 15.7598 4.6698 15.7598 4.3698 15.4598Z" fill="white"/>
</svg>
