<svg width="22" height="29" viewBox="0 0 22 29" fill="none" xmlns="http://www.w3.org/2000/svg">
<path fill-rule="evenodd" clip-rule="evenodd" d="M21.5706 21.4452L19.7001 19.5747V12.3248C19.7001 7.8734 17.3222 4.14695 13.1752 3.16096V2.17497C13.1752 0.971487 12.2037 0 11.0002 0C9.79676 0 8.82528 0.971487 8.82528 2.17497V3.16096C4.66383 4.14695 2.30036 7.8589 2.30036 12.3248V19.5747L0.429886 21.4452C-0.483602 22.3587 0.15439 23.9247 1.44487 23.9247H20.5411C21.8461 23.9247 22.4841 22.3587 21.5706 21.4452ZM5.20034 21.0247V12.3248C5.20034 8.72885 7.38981 5.79989 11.0003 5.79989C14.6107 5.79989 16.8002 8.72885 16.8002 12.3248V21.0247H5.20034ZM13.9002 25.3748C13.9002 26.9698 12.5952 28.2748 11.0002 28.2748C9.39076 28.2748 8.10028 26.9698 8.10028 25.3748H13.9002Z" fill="white"/>
</svg>
