<svg width="28" height="28" viewBox="0 0 28 28" fill="none" xmlns="http://www.w3.org/2000/svg">
<path fill-rule="evenodd" clip-rule="evenodd" d="M8.94326 24.7915L19.0571 24.7915C22.5816 24.7915 24.7913 22.296 24.7913 18.7645L24.7913 9.23517C24.7913 5.70367 22.5921 3.20817 19.0571 3.20817L8.94443 3.20817C5.40826 3.20817 3.20792 5.70367 3.20792 9.23517L3.20792 18.7645C3.20792 22.296 5.40826 24.7915 8.94326 24.7915Z" stroke="white" stroke-width="1.5" stroke-linecap="round" stroke-linejoin="round"/>
<path fill-rule="evenodd" clip-rule="evenodd" d="M15.5258 14C15.5258 12.8076 16.4929 11.8393 17.6864 11.8393C18.8788 11.8393 19.8459 12.8076 19.8459 14C19.8459 15.1923 18.8788 16.1606 17.6864 16.1606C16.4929 16.1606 15.5258 15.1923 15.5258 14Z" stroke="white" stroke-width="1.5" stroke-linecap="round" stroke-linejoin="round"/>
<path d="M15.5256 14L8.15463 14V11.8393" stroke="white" stroke-width="1.5" stroke-linecap="round" stroke-linejoin="round"/>
<path d="M11.4548 11.8398V14.0005" stroke="white" stroke-width="1.5" stroke-linecap="round" stroke-linejoin="round"/>
</svg>
