<svg width="28" height="28" viewBox="0 0 28 28" fill="none" xmlns="http://www.w3.org/2000/svg">
<path fill-rule="evenodd" clip-rule="evenodd" d="M14 0C10.1325 0 7 3.1325 7 7C7 10.8675 10.1325 14 14 14C17.8675 14 21 10.8675 21 7C21 3.1325 17.8675 0 14 0ZM17.6746 6.99937C17.6746 4.96937 16.0296 3.32437 13.9996 3.32437C11.9696 3.32437 10.3246 4.96937 10.3246 6.99937C10.3246 9.02937 11.9696 10.6744 13.9996 10.6744C16.0296 10.6744 17.6746 9.02937 17.6746 6.99937ZM24.6746 22.7494C24.6746 21.6294 19.1971 19.0744 13.9996 19.0744C8.80213 19.0744 3.32463 21.6294 3.32463 22.7494V24.6744H24.6746V22.7494ZM0 22.75C0 18.095 9.3275 15.75 14 15.75C18.6725 15.75 28 18.095 28 22.75V26.25C28 27.2125 27.2125 28 26.25 28H1.75C0.7875 28 0 27.2125 0 26.25V22.75Z" fill="#01B58A"/>
</svg>
