<svg width="32" height="31" viewBox="0 0 32 31" fill="none" xmlns="http://www.w3.org/2000/svg">
<path fill-rule="evenodd" clip-rule="evenodd" d="M21.2506 9.45501L30.299 10.2402C31.9441 10.3711 32.5985 12.4275 31.3459 13.5118L24.4848 19.4569L26.5413 28.2996C26.9152 29.9074 25.1765 31.1786 23.7557 30.3187L15.9973 25.6262L8.23882 30.3C6.818 31.16 5.07936 29.8887 5.45326 28.2809L7.50972 19.4569L0.648638 13.5118C-0.603929 12.4275 0.069092 10.3711 1.71425 10.2402L10.744 9.47371L14.2773 1.13572C14.9129 -0.378574 17.0816 -0.378574 17.7172 1.13572L21.2506 9.45501ZM8.96811 26.374L15.9974 22.1302L23.0455 26.3927L21.176 18.3912L27.3827 13.0071L19.1943 12.2967L15.9974 4.74386L12.8193 12.278L4.63086 12.9884L10.8376 18.3725L8.96811 26.374Z" fill="#01B58A"/>
</svg>
